Coordinates
version=1
nRows=18
nColumns=38
inDegrees=yes

Units are S.I. units (second, meters, Newtons, ...)
Angles are in degrees.

endheader
time	pelvis_tilt	pelvis_list	pelvis_rotation	pelvis_tx	pelvis_ty	pelvis_tz	hip_flexion_r	hip_adduction_r	hip_rotation_r	knee_angle_r	ankle_angle_r	subtalar_angle_r	mtp_angle_r	hip_flexion_l	hip_adduction_l	hip_rotation_l	knee_angle_l	ankle_angle_l	subtalar_angle_l	mtp_angle_l	lumbar_extension	lumbar_bending	lumbar_rotation	arm_flex_r	arm_add_r	arm_rot_r	elbow_flex_r	pro_sup_r	wrist_flex_r	wrist_dev_r	arm_flex_l	arm_add_l	arm_rot_l	elbow_flex_l	pro_sup_l	wrist_flex_l	wrist_dev_l
      3.78000000	     -0.09888225	      1.75540012	      7.77922437	     -0.08597518	      0.89688335	     -0.23017914	     28.03934556	     -1.88574968	    -11.63640302	    -14.78256343	     -0.05426123	     -2.26519943	      9.30592267	    -16.12087538	      1.80252795	      7.29009253	    -19.29688370	     10.08919309	     10.84301654	     14.49490218	     -6.28887732	     -0.17022345	    -10.47351068	     -8.87520712	    -14.62186548	     12.75948228	     11.94630486	     86.51662706	      0.00000000	      0.00000000	      1.43759896	    -16.88732191	     18.80414653	     27.66773977	     86.51662706	      0.00000000	      0.00000000
      3.79000000	     -0.04370743	      1.49173724	      7.86565694	     -0.07047989	      0.89537937	     -0.22958083	     27.82081067	     -1.42646618	    -11.22564356	    -16.01830879	     -1.38700043	     -4.06754664	      9.24007178	    -16.30903781	      1.24774607	      6.75176688	    -20.60664630	      8.69593783	     11.74008881	     16.97316792	     -5.98311501	      0.18807877	    -10.50551383	     -9.04437141	    -14.66371514	     13.16924721	     11.72367003	     86.51662706	      0.00000000	      0.00000000	      1.00249626	    -16.69038080	     18.88013126	     27.17179537	     86.51662706	      0.00000000	      0.00000000
      3.80000000	     -0.00177618	      1.12267850	      7.89578062	     -0.05486095	      0.89392200	     -0.22882721	     27.66804572	     -0.83750153	    -10.77673554	    -17.21580233	     -2.99767857	     -5.82030494	      9.12230775	    -16.34516237	      0.59178776	      6.11867466	    -22.07333751	      6.96720416	     12.60245462	     19.59796302	     -5.62752621	      0.66550328	    -10.44980741	     -9.23016495	    -14.73119215	     13.53223457	     11.55019020	     86.51662706	      0.00000000	      0.00000000	      0.54639192	    -16.45827992	     18.92419682	     26.65348923	     86.51662706	      0.00000000	      0.00000000
      3.81000000	      0.03693755	      0.63154064	      7.86785955	     -0.03927458	      0.89275805	     -0.22786518	     27.60066226	     -0.12533034	    -10.28865913	    -18.41577598	     -4.73253434	     -7.42226161	      8.95395746	    -16.20555912	     -0.17261475	      5.40870922	    -23.71928169	      4.84860732	     13.37894314	     22.24173504	     -5.24825732	      1.27321514	    -10.30110538	     -9.40849817	    -14.82374231	     13.84442996	     11.41981333	     86.51662706	      0.00000000	      0.00000000	      0.09037518	    -16.18981360	     18.94097924	     26.10797943	     86.51662706	      0.00000000	      0.00000000
      3.82000000	      0.07411719	      0.02060032	      7.78406136	     -0.02386563	      0.89207125	     -0.22675435	     27.60653814	      0.70314663	     -9.76059837	    -19.68252501	     -6.39950997	     -8.80265083	      8.74251442	    -15.87081439	     -1.03587687	      4.65351004	    -25.56203676	      2.30646950	     14.01387455	     24.75245289	     -4.87164320	      2.00601099	    -10.06504831	     -9.55470352	    -14.94123558	     14.10334311	     11.32868284	     86.51662706	      0.00000000	      0.00000000	     -0.35107100	    -15.88764597	     18.93757576	     25.53322147	     86.51662706	      0.00000000	      0.00000000
      3.83000000	      0.11134896	     -0.68594083	      7.64788115	     -0.00866366	      0.89185099	     -0.22561171	     27.65545980	      1.63730709	     -9.20455023	    -21.05259189	     -7.80390239	     -9.92270255	      8.49707744	    -15.33140314	     -1.97210930	      3.89716213	    -27.61361819	     -0.65511323	     14.45102761	     26.96806828	     -4.52039642	      2.84061306	     -9.75646916	     -9.64765799	    -15.08314114	     14.30753446	     11.27635600	     86.51662706	      0.00000000	      0.00000000	     -0.77057176	    -15.55851671	     18.92393941	     24.93024549	     86.51662706	      0.00000000	      0.00000000
      3.84000000	      0.15316649	     -1.44991832	      7.46285559	      0.00636097	      0.89191488	     -0.22449263	     27.71001872	      2.65579956	     -8.65020217	    -22.50257140	     -8.78522647	    -10.77092196	      8.22432010	    -14.59023808	     -2.94547408	      3.19278849	    -29.88014160	     -3.97959970	     14.63860387	     28.73500943	     -4.21213510	      3.74001620	     -9.39617435	     -9.67264603	    -15.24746846	     14.45627436	     11.26640410	     86.51662706	      0.00000000	      0.00000000	     -1.16593006	    -15.21240328	     18.91292894	     24.30290706	     86.51662706	      0.00000000	      0.00000000
      3.85000000	      0.20076588	     -2.23130046	      7.23575713	      0.02115934	      0.89206983	     -0.22337017	     27.72489615	      3.72556610	     -8.14002525	    -23.95354593	     -9.24583073	    -11.35468539	      7.92633355	    -13.65965961	     -3.91752008	      2.59704286	    -32.36061253	     -7.55002343	     14.53508368	     29.92832275	     -3.95991952	      4.66251115	     -9.00749385	     -9.62268429	    -15.43014857	     14.54943596	     11.30620348	     86.51662706	      0.00000000	      0.00000000	     -1.53679268	    -14.86084193	     18.91989941	     23.65724707	     86.51662706	      0.00000000	      0.00000000
      3.86000000	      0.25033512	     -2.99807795	      6.98254161	      0.03561906	      0.89225128	     -0.22221127	     27.64628884	      4.80698065	     -7.71761727	    -25.30028848	     -9.16437086	    -11.69169212	      7.60072656	    -12.55447529	     -4.85192087	      2.16305473	    -35.04459726	    -11.19127139	     14.11566521	     30.47027030	     -3.77360413	      5.57136741	     -8.61356241	     -9.49852726	    -15.62528820	     14.58763476	     11.40591126	     86.51662706	      0.00000000	      0.00000000	     -1.88138402	    -14.51497877	     18.96176513	     23.00066495	     86.51662706	      0.00000000	      0.00000000
      3.87000000	      0.30080624	     -3.73069889	      6.73093143	      0.04968297	      0.89252172	     -0.22103183	     27.41944050	      5.85933213	     -7.41554794	    -26.44390673	     -8.59176021	    -11.80416304	      7.24261677	    -11.28595533	     -5.71663511	      1.93333418	    -37.90968959	    -14.68449701	     13.37856775	     30.34382490	     -3.66063947	      6.44070014	     -8.23552347	     -9.30766422	    -15.82621583	     14.57253880	     11.57688023	     86.51662706	      0.00000000	      0.00000000	     -2.19457511	    -14.18411299	     19.05552855	     22.34112509	     86.51662706	      0.00000000	      0.00000000
      3.88000000	      0.36009908	     -4.41908581	      6.51630936	      0.06337563	      0.89298009	     -0.21989298	     27.00002720	      6.84462498	     -7.24840560	    -27.31460922	     -7.63259681	    -11.71669168	      6.84763557	     -9.86188539	     -6.48492926	      1.93432547	    -40.92045576	    -17.79311061	     12.34992773	     29.59787082	     -3.62571603	      7.25521306	     -7.89122601	     -9.06254973	    -16.02679073	     14.50721426	     11.82993843	     86.51662706	      0.00000000	      0.00000000	     -2.46789641	    -13.87530116	     19.21635719	     21.68659005	     86.51662706	      0.00000000	      0.00000000
      3.89000000	      0.44218600	     -5.05411941	      6.37357381	      0.07674769	      0.89370466	     -0.21888263	     26.36372537	      7.73084213	     -7.21287814	    -27.88022383	     -6.41886937	    -11.45666315	      6.41487783	     -8.29283469	     -7.13500854	      2.17333984	    -44.02946471	    -20.29703298	     11.08554413	     28.34220579	     -3.66969905	      8.00499458	     -7.59393568	     -8.77833116	    -16.22235367	     14.39636089	     12.17394132	     86.51662706	      0.00000000	      0.00000000	     -2.69130908	    -13.59403731	     19.45539744	     21.04479840	     86.51662706	      0.00000000	      0.00000000
      3.90000000	      0.55842574	     -5.62076752	      6.32919024	      0.08983503	      0.89475580	     -0.21809379	     25.51029221	      8.49459983	     -7.29297247	    -28.14274408	     -5.08352532	    -11.05533788	      5.94890408	     -6.59828162	     -7.64702952	      2.63776475	    -47.17880487	    -22.02920670	      9.66771561	     26.73253575	     -3.78869364	      8.67905189	     -7.35095255	     -8.47047363	    -16.40998053	     14.24632733	     12.61483821	     86.51662706	      0.00000000	      0.00000000	     -2.85599968	    -13.34545639	     19.77762631	     20.42340274	     86.51662706	      0.00000000	      0.00000000
      3.91000000	      0.71107727	     -6.09859836	      6.39565666	      0.10265459	      0.89617460	     -0.21757966	     24.46073692	      9.12227628	     -7.46685983	    -28.12897732	     -3.73979304	    -10.54798779	      5.46029600	     -4.80602096	     -7.99875744	      3.29659698	    -50.30052659	    -22.90616182	      8.19620915	     24.94808150	     -3.97373208	      9.26133203	     -7.16244469	     -8.15279730	    -16.58812958	     14.06485316	     13.15527450	     86.51662706	      0.00000000	      0.00000000	     -2.95726912	    -13.13520135	     20.18011148	     19.83038655	     86.51662706	      0.00000000	      0.00000000
      3.92000000	      0.89325374	     -6.46766276	      6.56887134	      0.11522560	      0.89794939	     -0.21731790	     23.25049601	      9.60934852	     -7.71196748	    -27.88060064	     -2.46932788	     -9.97239240	      4.96468822	     -2.94560470	     -8.16456721	      4.10464630	    -53.31762330	    -22.94376248	      6.77399703	     23.16642211	     -4.21117180	      9.73105112	     -7.02102914	     -7.83637410	    -16.75610961	     13.86054467	     13.79458848	     86.51662706	      0.00000000	      0.00000000	     -2.99671083	    -12.96931105	     20.65104820	     19.27458006	     86.51662706	      0.00000000	      0.00000000
      3.93000000	      1.09242772	     -6.71359959	      6.82855429	      0.12758012	      0.89999770	     -0.21722794	     21.92270125	      9.95825377	     -8.00650936	    -27.44612429	     -1.31937645	     -9.36604666	      4.48057208	     -1.04275456	     -8.12130937	      5.00885776	    -56.14931328	    -22.25179811	      5.49048557	     21.54084248	     -4.48369252	     10.06679833	     -6.91251510	     -7.52939556	    -16.91382855	     13.64215132	     14.52903931	     86.51662706	      0.00000000	      0.00000000	     -2.98319217	    -12.85314204	     21.16986076	     18.76602238	     86.51662706	      0.00000000	      0.00000000
      3.94000000	      1.29288459	     -6.82931312	      7.14225421	      0.13974548	      0.90220797	     -0.21721794	     20.52283614	     10.17590212	     -8.32792438	    -26.87513425	     -0.30703021	     -8.76298923	      4.02643103	      0.88094156	     -7.85817285	      5.95448031	    -58.72133795	    -21.00745247	      4.40661949	     20.18420954	     -4.77168455	     10.25225168	     -6.81781431	     -7.23768337	    -17.06198044	     13.41775576	     15.35218496	     86.51662706	      0.00000000	      0.00000000	     -2.93242730	    -12.78987016	     21.70847690	     18.31592957	     86.51662706	      0.00000000	      0.00000000
      3.95000000	      1.47716800	     -6.81517126	      7.47236589	      0.15174351	      0.90449621	     -0.21721734	     19.09397590	     10.27234985	     -8.65029664	    -26.21406764	      0.57242279	     -8.19113080	      3.61787109	      2.80589764	     -7.38364386	      6.88869067	    -60.97651706	    -19.41533000	      3.54612469	     19.16099267	     -5.05486041	     10.28088468	     -6.71562840	     -6.96529643	    -17.20242571	     13.19400310	     16.25539141	     86.51662706	      0.00000000	      0.00000000	     -2.86514080	    -12.77922203	     22.23365763	     17.93613209	     86.51662706	      0.00000000	      0.00000000
